<mxfile host="app.diagrams.net" modified="2021-10-30T05:58:36.945Z" agent="5.0 (Windows NT 10.0; Win64; x64) AppleWebKit/537.36 (KHTML, like Gecko) Chrome/95.0.4638.69 Safari/537.36" etag="YBF7o2IioVnvuanF7FAQ" version="15.6.0" type="github">
  <diagram id="R2lEEEUBdFMjLlhIrx00" name="Page-1">
    <mxGraphModel dx="1038" dy="547" grid="1" gridSize="10" guides="1" tooltips="1" connect="1" arrows="1" fold="1" page="1" pageScale="1" pageWidth="850" pageHeight="1100" math="0" shadow="0" extFonts="Permanent Marker^https://fonts.googleapis.com/css?family=Permanent+Marker">
      <root>
        <mxCell id="0" />
        <mxCell id="1" parent="0" />
        <mxCell id="wXo4H-SSi3zwfZi33Xhp-3" value="Person" style="shape=table;startSize=30;container=1;collapsible=0;childLayout=tableLayout;fontSize=17;fontStyle=1" vertex="1" parent="1">
          <mxGeometry x="40" y="40" width="420" height="60" as="geometry" />
        </mxCell>
        <mxCell id="wXo4H-SSi3zwfZi33Xhp-4" value="" style="shape=partialRectangle;collapsible=0;dropTarget=0;pointerEvents=0;fillColor=none;top=0;left=0;bottom=0;right=0;points=[[0,0.5],[1,0.5]];portConstraint=eastwest;" vertex="1" parent="wXo4H-SSi3zwfZi33Xhp-3">
          <mxGeometry y="30" width="420" height="30" as="geometry" />
        </mxCell>
        <mxCell id="wXo4H-SSi3zwfZi33Xhp-5" value="P_bdate" style="shape=partialRectangle;html=1;whiteSpace=wrap;connectable=0;overflow=hidden;fillColor=none;top=0;left=0;bottom=0;right=0;pointerEvents=1;" vertex="1" parent="wXo4H-SSi3zwfZi33Xhp-4">
          <mxGeometry width="60" height="30" as="geometry">
            <mxRectangle width="60" height="30" as="alternateBounds" />
          </mxGeometry>
        </mxCell>
        <mxCell id="wXo4H-SSi3zwfZi33Xhp-6" value="&lt;u&gt;P_id&lt;/u&gt;" style="shape=partialRectangle;html=1;whiteSpace=wrap;connectable=0;overflow=hidden;fillColor=none;top=0;left=0;bottom=0;right=0;pointerEvents=1;" vertex="1" parent="wXo4H-SSi3zwfZi33Xhp-4">
          <mxGeometry x="60" width="60" height="30" as="geometry">
            <mxRectangle width="60" height="30" as="alternateBounds" />
          </mxGeometry>
        </mxCell>
        <mxCell id="wXo4H-SSi3zwfZi33Xhp-7" value="First&lt;span style=&quot;white-space: pre&quot;&gt;	&lt;/span&gt;" style="shape=partialRectangle;html=1;whiteSpace=wrap;connectable=0;overflow=hidden;fillColor=none;top=0;left=0;bottom=0;right=0;pointerEvents=1;" vertex="1" parent="wXo4H-SSi3zwfZi33Xhp-4">
          <mxGeometry x="120" width="60" height="30" as="geometry">
            <mxRectangle width="60" height="30" as="alternateBounds" />
          </mxGeometry>
        </mxCell>
        <mxCell id="wXo4H-SSi3zwfZi33Xhp-8" value="Middle" style="shape=partialRectangle;html=1;whiteSpace=wrap;connectable=0;overflow=hidden;fillColor=none;top=0;left=0;bottom=0;right=0;pointerEvents=1;" vertex="1" parent="wXo4H-SSi3zwfZi33Xhp-4">
          <mxGeometry x="180" width="60" height="30" as="geometry">
            <mxRectangle width="60" height="30" as="alternateBounds" />
          </mxGeometry>
        </mxCell>
        <mxCell id="wXo4H-SSi3zwfZi33Xhp-9" value="Last" style="shape=partialRectangle;html=1;whiteSpace=wrap;connectable=0;overflow=hidden;fillColor=none;top=0;left=0;bottom=0;right=0;pointerEvents=1;" vertex="1" parent="wXo4H-SSi3zwfZi33Xhp-4">
          <mxGeometry x="240" width="60" height="30" as="geometry">
            <mxRectangle width="60" height="30" as="alternateBounds" />
          </mxGeometry>
        </mxCell>
        <mxCell id="wXo4H-SSi3zwfZi33Xhp-10" value="P_addr" style="shape=partialRectangle;html=1;whiteSpace=wrap;connectable=0;overflow=hidden;fillColor=none;top=0;left=0;bottom=0;right=0;pointerEvents=1;" vertex="1" parent="wXo4H-SSi3zwfZi33Xhp-4">
          <mxGeometry x="300" width="60" height="30" as="geometry">
            <mxRectangle width="60" height="30" as="alternateBounds" />
          </mxGeometry>
        </mxCell>
        <mxCell id="wXo4H-SSi3zwfZi33Xhp-11" value="P_gender" style="shape=partialRectangle;html=1;whiteSpace=wrap;connectable=0;overflow=hidden;fillColor=none;top=0;left=0;bottom=0;right=0;pointerEvents=1;" vertex="1" parent="wXo4H-SSi3zwfZi33Xhp-4">
          <mxGeometry x="360" width="60" height="30" as="geometry">
            <mxRectangle width="60" height="30" as="alternateBounds" />
          </mxGeometry>
        </mxCell>
        <mxCell id="wXo4H-SSi3zwfZi33Xhp-18" value="Employee" style="shape=table;startSize=30;container=1;collapsible=0;childLayout=tableLayout;fontSize=17;fontStyle=1" vertex="1" parent="1">
          <mxGeometry x="40" y="140" width="280" height="70" as="geometry" />
        </mxCell>
        <mxCell id="wXo4H-SSi3zwfZi33Xhp-19" value="" style="shape=partialRectangle;collapsible=0;dropTarget=0;pointerEvents=0;fillColor=none;top=0;left=0;bottom=0;right=0;points=[[0,0.5],[1,0.5]];portConstraint=eastwest;fontSize=17;" vertex="1" parent="wXo4H-SSi3zwfZi33Xhp-18">
          <mxGeometry y="30" width="280" height="40" as="geometry" />
        </mxCell>
        <mxCell id="wXo4H-SSi3zwfZi33Xhp-20" value="start_date" style="shape=partialRectangle;html=1;whiteSpace=wrap;connectable=0;overflow=hidden;fillColor=none;top=0;left=0;bottom=0;right=0;pointerEvents=1;fontSize=17;" vertex="1" parent="wXo4H-SSi3zwfZi33Xhp-19">
          <mxGeometry width="94" height="40" as="geometry">
            <mxRectangle width="94" height="40" as="alternateBounds" />
          </mxGeometry>
        </mxCell>
        <mxCell id="wXo4H-SSi3zwfZi33Xhp-21" value="&lt;u&gt;P_id&lt;/u&gt;" style="shape=partialRectangle;html=1;whiteSpace=wrap;connectable=0;overflow=hidden;fillColor=none;top=0;left=0;bottom=0;right=0;pointerEvents=1;fontSize=17;" vertex="1" parent="wXo4H-SSi3zwfZi33Xhp-19">
          <mxGeometry x="94" width="92" height="40" as="geometry">
            <mxRectangle width="92" height="40" as="alternateBounds" />
          </mxGeometry>
        </mxCell>
        <mxCell id="wXo4H-SSi3zwfZi33Xhp-22" value="emp_type" style="shape=partialRectangle;html=1;whiteSpace=wrap;connectable=0;overflow=hidden;fillColor=none;top=0;left=0;bottom=0;right=0;pointerEvents=1;fontSize=17;" vertex="1" parent="wXo4H-SSi3zwfZi33Xhp-19">
          <mxGeometry x="186" width="94" height="40" as="geometry">
            <mxRectangle width="94" height="40" as="alternateBounds" />
          </mxGeometry>
        </mxCell>
        <mxCell id="wXo4H-SSi3zwfZi33Xhp-23" value="A-class Passenger" style="shape=table;startSize=30;container=1;collapsible=0;childLayout=tableLayout;fontSize=17;fontStyle=1" vertex="1" parent="1">
          <mxGeometry x="40" y="240" width="160" height="70" as="geometry" />
        </mxCell>
        <mxCell id="wXo4H-SSi3zwfZi33Xhp-24" value="" style="shape=partialRectangle;collapsible=0;dropTarget=0;pointerEvents=0;fillColor=none;top=0;left=0;bottom=0;right=0;points=[[0,0.5],[1,0.5]];portConstraint=eastwest;fontSize=17;" vertex="1" parent="wXo4H-SSi3zwfZi33Xhp-23">
          <mxGeometry y="30" width="160" height="40" as="geometry" />
        </mxCell>
        <mxCell id="wXo4H-SSi3zwfZi33Xhp-25" value="&lt;u&gt;P_id&lt;/u&gt;" style="shape=partialRectangle;html=1;whiteSpace=wrap;connectable=0;overflow=hidden;fillColor=none;top=0;left=0;bottom=0;right=0;pointerEvents=1;fontSize=17;" vertex="1" parent="wXo4H-SSi3zwfZi33Xhp-24">
          <mxGeometry width="160" height="40" as="geometry">
            <mxRectangle width="160" height="40" as="alternateBounds" />
          </mxGeometry>
        </mxCell>
        <mxCell id="wXo4H-SSi3zwfZi33Xhp-26" value="Payment" style="shape=table;startSize=30;container=1;collapsible=0;childLayout=tableLayout;fontSize=17;fontStyle=1" vertex="1" parent="1">
          <mxGeometry x="40" y="340" width="410" height="70" as="geometry" />
        </mxCell>
        <mxCell id="wXo4H-SSi3zwfZi33Xhp-27" value="" style="shape=partialRectangle;collapsible=0;dropTarget=0;pointerEvents=0;fillColor=none;top=0;left=0;bottom=0;right=0;points=[[0,0.5],[1,0.5]];portConstraint=eastwest;fontSize=17;" vertex="1" parent="wXo4H-SSi3zwfZi33Xhp-26">
          <mxGeometry y="30" width="410" height="40" as="geometry" />
        </mxCell>
        <mxCell id="wXo4H-SSi3zwfZi33Xhp-28" value="&lt;u&gt;Pay_id&lt;/u&gt;" style="shape=partialRectangle;html=1;whiteSpace=wrap;connectable=0;overflow=hidden;fillColor=none;top=0;left=0;bottom=0;right=0;pointerEvents=1;fontSize=17;" vertex="1" parent="wXo4H-SSi3zwfZi33Xhp-27">
          <mxGeometry width="82" height="40" as="geometry">
            <mxRectangle width="82" height="40" as="alternateBounds" />
          </mxGeometry>
        </mxCell>
        <mxCell id="wXo4H-SSi3zwfZi33Xhp-29" value="Cash" style="shape=partialRectangle;html=1;whiteSpace=wrap;connectable=0;overflow=hidden;fillColor=none;top=0;left=0;bottom=0;right=0;pointerEvents=1;fontSize=17;" vertex="1" parent="wXo4H-SSi3zwfZi33Xhp-27">
          <mxGeometry x="82" width="82" height="40" as="geometry">
            <mxRectangle width="82" height="40" as="alternateBounds" />
          </mxGeometry>
        </mxCell>
        <mxCell id="wXo4H-SSi3zwfZi33Xhp-30" value="Card" style="shape=partialRectangle;html=1;whiteSpace=wrap;connectable=0;overflow=hidden;fillColor=none;top=0;left=0;bottom=0;right=0;pointerEvents=1;fontSize=17;" vertex="1" parent="wXo4H-SSi3zwfZi33Xhp-27">
          <mxGeometry x="164" width="82" height="40" as="geometry">
            <mxRectangle width="82" height="40" as="alternateBounds" />
          </mxGeometry>
        </mxCell>
        <mxCell id="wXo4H-SSi3zwfZi33Xhp-31" value="Amount" style="shape=partialRectangle;html=1;whiteSpace=wrap;connectable=0;overflow=hidden;fillColor=none;top=0;left=0;bottom=0;right=0;pointerEvents=1;fontSize=17;" vertex="1" parent="wXo4H-SSi3zwfZi33Xhp-27">
          <mxGeometry x="246" width="82" height="40" as="geometry">
            <mxRectangle width="82" height="40" as="alternateBounds" />
          </mxGeometry>
        </mxCell>
        <mxCell id="wXo4H-SSi3zwfZi33Xhp-32" value="Other_info" style="shape=partialRectangle;html=1;whiteSpace=wrap;connectable=0;overflow=hidden;fillColor=none;top=0;left=0;bottom=0;right=0;pointerEvents=1;fontSize=17;" vertex="1" parent="wXo4H-SSi3zwfZi33Xhp-27">
          <mxGeometry x="328" width="82" height="40" as="geometry">
            <mxRectangle width="82" height="40" as="alternateBounds" />
          </mxGeometry>
        </mxCell>
        <mxCell id="wXo4H-SSi3zwfZi33Xhp-33" value="A-star Passenger" style="shape=table;startSize=30;container=1;collapsible=0;childLayout=tableLayout;fontSize=17;fontStyle=1" vertex="1" parent="1">
          <mxGeometry x="270" y="240" width="160" height="70" as="geometry" />
        </mxCell>
        <mxCell id="wXo4H-SSi3zwfZi33Xhp-34" value="" style="shape=partialRectangle;collapsible=0;dropTarget=0;pointerEvents=0;fillColor=none;top=0;left=0;bottom=0;right=0;points=[[0,0.5],[1,0.5]];portConstraint=eastwest;fontSize=17;" vertex="1" parent="wXo4H-SSi3zwfZi33Xhp-33">
          <mxGeometry y="30" width="160" height="40" as="geometry" />
        </mxCell>
        <mxCell id="wXo4H-SSi3zwfZi33Xhp-35" value="&lt;u&gt;P_id&lt;/u&gt;" style="shape=partialRectangle;html=1;whiteSpace=wrap;connectable=0;overflow=hidden;fillColor=none;top=0;left=0;bottom=0;right=0;pointerEvents=1;fontSize=17;" vertex="1" parent="wXo4H-SSi3zwfZi33Xhp-34">
          <mxGeometry width="160" height="40" as="geometry">
            <mxRectangle width="160" height="40" as="alternateBounds" />
          </mxGeometry>
        </mxCell>
        <mxCell id="wXo4H-SSi3zwfZi33Xhp-36" value="Ticket" style="shape=table;startSize=30;container=1;collapsible=0;childLayout=tableLayout;fontSize=17;fontStyle=1" vertex="1" parent="1">
          <mxGeometry x="40" y="440" width="350" height="70" as="geometry" />
        </mxCell>
        <mxCell id="wXo4H-SSi3zwfZi33Xhp-37" value="" style="shape=partialRectangle;collapsible=0;dropTarget=0;pointerEvents=0;fillColor=none;top=0;left=0;bottom=0;right=0;points=[[0,0.5],[1,0.5]];portConstraint=eastwest;fontSize=17;" vertex="1" parent="wXo4H-SSi3zwfZi33Xhp-36">
          <mxGeometry y="30" width="350" height="40" as="geometry" />
        </mxCell>
        <mxCell id="wXo4H-SSi3zwfZi33Xhp-38" value="&lt;u&gt;T_id&lt;/u&gt;" style="shape=partialRectangle;html=1;whiteSpace=wrap;connectable=0;overflow=hidden;fillColor=none;top=0;left=0;bottom=0;right=0;pointerEvents=1;fontSize=17;" vertex="1" parent="wXo4H-SSi3zwfZi33Xhp-37">
          <mxGeometry width="88" height="40" as="geometry">
            <mxRectangle width="88" height="40" as="alternateBounds" />
          </mxGeometry>
        </mxCell>
        <mxCell id="wXo4H-SSi3zwfZi33Xhp-39" value="B_id" style="shape=partialRectangle;html=1;whiteSpace=wrap;connectable=0;overflow=hidden;fillColor=none;top=0;left=0;bottom=0;right=0;pointerEvents=1;fontSize=17;" vertex="1" parent="wXo4H-SSi3zwfZi33Xhp-37">
          <mxGeometry x="88" width="87" height="40" as="geometry">
            <mxRectangle width="87" height="40" as="alternateBounds" />
          </mxGeometry>
        </mxCell>
        <mxCell id="wXo4H-SSi3zwfZi33Xhp-40" value="Price" style="shape=partialRectangle;html=1;whiteSpace=wrap;connectable=0;overflow=hidden;fillColor=none;top=0;left=0;bottom=0;right=0;pointerEvents=1;fontSize=17;" vertex="1" parent="wXo4H-SSi3zwfZi33Xhp-37">
          <mxGeometry x="175" width="88" height="40" as="geometry">
            <mxRectangle width="88" height="40" as="alternateBounds" />
          </mxGeometry>
        </mxCell>
        <mxCell id="wXo4H-SSi3zwfZi33Xhp-41" value="Seat_num" style="shape=partialRectangle;html=1;whiteSpace=wrap;connectable=0;overflow=hidden;fillColor=none;top=0;left=0;bottom=0;right=0;pointerEvents=1;fontSize=17;" vertex="1" parent="wXo4H-SSi3zwfZi33Xhp-37">
          <mxGeometry x="263" width="87" height="40" as="geometry">
            <mxRectangle width="87" height="40" as="alternateBounds" />
          </mxGeometry>
        </mxCell>
        <mxCell id="wXo4H-SSi3zwfZi33Xhp-42" value="Bus" style="shape=table;startSize=30;container=1;collapsible=0;childLayout=tableLayout;fontSize=17;fontStyle=1" vertex="1" parent="1">
          <mxGeometry x="40" y="540" width="400" height="70" as="geometry" />
        </mxCell>
        <mxCell id="wXo4H-SSi3zwfZi33Xhp-43" value="" style="shape=partialRectangle;collapsible=0;dropTarget=0;pointerEvents=0;fillColor=none;top=0;left=0;bottom=0;right=0;points=[[0,0.5],[1,0.5]];portConstraint=eastwest;fontSize=17;" vertex="1" parent="wXo4H-SSi3zwfZi33Xhp-42">
          <mxGeometry y="30" width="400" height="40" as="geometry" />
        </mxCell>
        <mxCell id="wXo4H-SSi3zwfZi33Xhp-44" value="&lt;u&gt;B_num&lt;/u&gt;" style="shape=partialRectangle;html=1;whiteSpace=wrap;connectable=0;overflow=hidden;fillColor=none;top=0;left=0;bottom=0;right=0;pointerEvents=1;fontSize=17;" vertex="1" parent="wXo4H-SSi3zwfZi33Xhp-43">
          <mxGeometry width="80" height="40" as="geometry">
            <mxRectangle width="80" height="40" as="alternateBounds" />
          </mxGeometry>
        </mxCell>
        <mxCell id="wXo4H-SSi3zwfZi33Xhp-45" value="Lp_num" style="shape=partialRectangle;html=1;whiteSpace=wrap;connectable=0;overflow=hidden;fillColor=none;top=0;left=0;bottom=0;right=0;pointerEvents=1;fontSize=17;" vertex="1" parent="wXo4H-SSi3zwfZi33Xhp-43">
          <mxGeometry x="80" width="80" height="40" as="geometry">
            <mxRectangle width="80" height="40" as="alternateBounds" />
          </mxGeometry>
        </mxCell>
        <mxCell id="wXo4H-SSi3zwfZi33Xhp-46" value="Seat_num" style="shape=partialRectangle;html=1;whiteSpace=wrap;connectable=0;overflow=hidden;fillColor=none;top=0;left=0;bottom=0;right=0;pointerEvents=1;fontSize=17;" vertex="1" parent="wXo4H-SSi3zwfZi33Xhp-43">
          <mxGeometry x="160" width="80" height="40" as="geometry">
            <mxRectangle width="80" height="40" as="alternateBounds" />
          </mxGeometry>
        </mxCell>
        <mxCell id="wXo4H-SSi3zwfZi33Xhp-47" value="Other_info" style="shape=partialRectangle;html=1;whiteSpace=wrap;connectable=0;overflow=hidden;fillColor=none;top=0;left=0;bottom=0;right=0;pointerEvents=1;fontSize=17;" vertex="1" parent="wXo4H-SSi3zwfZi33Xhp-43">
          <mxGeometry x="240" width="80" height="40" as="geometry">
            <mxRectangle width="80" height="40" as="alternateBounds" />
          </mxGeometry>
        </mxCell>
        <mxCell id="wXo4H-SSi3zwfZi33Xhp-48" value="P_id" style="shape=partialRectangle;html=1;whiteSpace=wrap;connectable=0;overflow=hidden;fillColor=none;top=0;left=0;bottom=0;right=0;pointerEvents=1;fontSize=17;" vertex="1" parent="wXo4H-SSi3zwfZi33Xhp-43">
          <mxGeometry x="320" width="80" height="40" as="geometry">
            <mxRectangle width="80" height="40" as="alternateBounds" />
          </mxGeometry>
        </mxCell>
        <mxCell id="wXo4H-SSi3zwfZi33Xhp-49" value="Terminal" style="shape=table;startSize=30;container=1;collapsible=0;childLayout=tableLayout;fontSize=17;fontStyle=1" vertex="1" parent="1">
          <mxGeometry x="540" y="240" width="300" height="70" as="geometry" />
        </mxCell>
        <mxCell id="wXo4H-SSi3zwfZi33Xhp-50" value="" style="shape=partialRectangle;collapsible=0;dropTarget=0;pointerEvents=0;fillColor=none;top=0;left=0;bottom=0;right=0;points=[[0,0.5],[1,0.5]];portConstraint=eastwest;fontSize=17;" vertex="1" parent="wXo4H-SSi3zwfZi33Xhp-49">
          <mxGeometry y="30" width="300" height="40" as="geometry" />
        </mxCell>
        <mxCell id="wXo4H-SSi3zwfZi33Xhp-51" value="&lt;u&gt;T_id&lt;/u&gt;" style="shape=partialRectangle;html=1;whiteSpace=wrap;connectable=0;overflow=hidden;fillColor=none;top=0;left=0;bottom=0;right=0;pointerEvents=1;fontSize=17;" vertex="1" parent="wXo4H-SSi3zwfZi33Xhp-50">
          <mxGeometry width="60" height="40" as="geometry">
            <mxRectangle width="60" height="40" as="alternateBounds" />
          </mxGeometry>
        </mxCell>
        <mxCell id="wXo4H-SSi3zwfZi33Xhp-52" value="T_loc" style="shape=partialRectangle;html=1;whiteSpace=wrap;connectable=0;overflow=hidden;fillColor=none;top=0;left=0;bottom=0;right=0;pointerEvents=1;fontSize=17;" vertex="1" parent="wXo4H-SSi3zwfZi33Xhp-50">
          <mxGeometry x="60" width="60" height="40" as="geometry">
            <mxRectangle width="60" height="40" as="alternateBounds" />
          </mxGeometry>
        </mxCell>
        <mxCell id="wXo4H-SSi3zwfZi33Xhp-53" value="Date" style="shape=partialRectangle;html=1;whiteSpace=wrap;connectable=0;overflow=hidden;fillColor=none;top=0;left=0;bottom=0;right=0;pointerEvents=1;fontSize=17;" vertex="1" parent="wXo4H-SSi3zwfZi33Xhp-50">
          <mxGeometry x="120" width="60" height="40" as="geometry">
            <mxRectangle width="60" height="40" as="alternateBounds" />
          </mxGeometry>
        </mxCell>
        <mxCell id="wXo4H-SSi3zwfZi33Xhp-54" value="Time" style="shape=partialRectangle;html=1;whiteSpace=wrap;connectable=0;overflow=hidden;fillColor=none;top=0;left=0;bottom=0;right=0;pointerEvents=1;fontSize=17;" vertex="1" parent="wXo4H-SSi3zwfZi33Xhp-50">
          <mxGeometry x="180" width="60" height="40" as="geometry">
            <mxRectangle width="60" height="40" as="alternateBounds" />
          </mxGeometry>
        </mxCell>
        <mxCell id="wXo4H-SSi3zwfZi33Xhp-55" value="B_num" style="shape=partialRectangle;html=1;whiteSpace=wrap;connectable=0;overflow=hidden;fillColor=none;top=0;left=0;bottom=0;right=0;pointerEvents=1;fontSize=17;" vertex="1" parent="wXo4H-SSi3zwfZi33Xhp-50">
          <mxGeometry x="240" width="60" height="40" as="geometry">
            <mxRectangle width="60" height="40" as="alternateBounds" />
          </mxGeometry>
        </mxCell>
        <mxCell id="wXo4H-SSi3zwfZi33Xhp-56" value="Route" style="shape=table;startSize=30;container=1;collapsible=0;childLayout=tableLayout;fontSize=17;fontStyle=1" vertex="1" parent="1">
          <mxGeometry x="540" y="40" width="120" height="70" as="geometry" />
        </mxCell>
        <mxCell id="wXo4H-SSi3zwfZi33Xhp-57" value="" style="shape=partialRectangle;collapsible=0;dropTarget=0;pointerEvents=0;fillColor=none;top=0;left=0;bottom=0;right=0;points=[[0,0.5],[1,0.5]];portConstraint=eastwest;fontSize=17;" vertex="1" parent="wXo4H-SSi3zwfZi33Xhp-56">
          <mxGeometry y="30" width="120" height="40" as="geometry" />
        </mxCell>
        <mxCell id="wXo4H-SSi3zwfZi33Xhp-58" value="&lt;u&gt;R_id&lt;/u&gt;" style="shape=partialRectangle;html=1;whiteSpace=wrap;connectable=0;overflow=hidden;fillColor=none;top=0;left=0;bottom=0;right=0;pointerEvents=1;fontSize=17;" vertex="1" parent="wXo4H-SSi3zwfZi33Xhp-57">
          <mxGeometry width="60" height="40" as="geometry">
            <mxRectangle width="60" height="40" as="alternateBounds" />
          </mxGeometry>
        </mxCell>
        <mxCell id="wXo4H-SSi3zwfZi33Xhp-59" value="B_num" style="shape=partialRectangle;html=1;whiteSpace=wrap;connectable=0;overflow=hidden;fillColor=none;top=0;left=0;bottom=0;right=0;pointerEvents=1;fontSize=17;" vertex="1" parent="wXo4H-SSi3zwfZi33Xhp-57">
          <mxGeometry x="60" width="60" height="40" as="geometry">
            <mxRectangle width="60" height="40" as="alternateBounds" />
          </mxGeometry>
        </mxCell>
        <mxCell id="wXo4H-SSi3zwfZi33Xhp-60" value="Bus stop" style="shape=table;startSize=30;container=1;collapsible=0;childLayout=tableLayout;fontSize=17;fontStyle=1" vertex="1" parent="1">
          <mxGeometry x="540" y="140" width="180" height="70" as="geometry" />
        </mxCell>
        <mxCell id="wXo4H-SSi3zwfZi33Xhp-61" value="" style="shape=partialRectangle;collapsible=0;dropTarget=0;pointerEvents=0;fillColor=none;top=0;left=0;bottom=0;right=0;points=[[0,0.5],[1,0.5]];portConstraint=eastwest;fontSize=17;" vertex="1" parent="wXo4H-SSi3zwfZi33Xhp-60">
          <mxGeometry y="30" width="180" height="40" as="geometry" />
        </mxCell>
        <mxCell id="wXo4H-SSi3zwfZi33Xhp-62" value="&lt;u&gt;S_id&lt;/u&gt;" style="shape=partialRectangle;html=1;whiteSpace=wrap;connectable=0;overflow=hidden;fillColor=none;top=0;left=0;bottom=0;right=0;pointerEvents=1;fontSize=17;" vertex="1" parent="wXo4H-SSi3zwfZi33Xhp-61">
          <mxGeometry width="60" height="40" as="geometry">
            <mxRectangle width="60" height="40" as="alternateBounds" />
          </mxGeometry>
        </mxCell>
        <mxCell id="wXo4H-SSi3zwfZi33Xhp-63" value="S_loc" style="shape=partialRectangle;html=1;whiteSpace=wrap;connectable=0;overflow=hidden;fillColor=none;top=0;left=0;bottom=0;right=0;pointerEvents=1;fontSize=17;" vertex="1" parent="wXo4H-SSi3zwfZi33Xhp-61">
          <mxGeometry x="60" width="60" height="40" as="geometry">
            <mxRectangle width="60" height="40" as="alternateBounds" />
          </mxGeometry>
        </mxCell>
        <mxCell id="wXo4H-SSi3zwfZi33Xhp-64" value="R_id" style="shape=partialRectangle;html=1;whiteSpace=wrap;connectable=0;overflow=hidden;fillColor=none;top=0;left=0;bottom=0;right=0;pointerEvents=1;fontSize=17;" vertex="1" parent="wXo4H-SSi3zwfZi33Xhp-61">
          <mxGeometry x="120" width="60" height="40" as="geometry">
            <mxRectangle width="60" height="40" as="alternateBounds" />
          </mxGeometry>
        </mxCell>
        <mxCell id="wXo4H-SSi3zwfZi33Xhp-65" value="Time Table" style="shape=table;startSize=30;container=1;collapsible=0;childLayout=tableLayout;fontSize=17;fontStyle=1" vertex="1" parent="1">
          <mxGeometry x="40" y="650" width="410" height="70" as="geometry" />
        </mxCell>
        <mxCell id="wXo4H-SSi3zwfZi33Xhp-66" value="" style="shape=partialRectangle;collapsible=0;dropTarget=0;pointerEvents=0;fillColor=none;top=0;left=0;bottom=0;right=0;points=[[0,0.5],[1,0.5]];portConstraint=eastwest;fontSize=17;" vertex="1" parent="wXo4H-SSi3zwfZi33Xhp-65">
          <mxGeometry y="30" width="410" height="40" as="geometry" />
        </mxCell>
        <mxCell id="wXo4H-SSi3zwfZi33Xhp-67" value="&lt;u&gt;Time_id&lt;/u&gt;" style="shape=partialRectangle;html=1;whiteSpace=wrap;connectable=0;overflow=hidden;fillColor=none;top=0;left=0;bottom=0;right=0;pointerEvents=1;fontSize=17;" vertex="1" parent="wXo4H-SSi3zwfZi33Xhp-66">
          <mxGeometry width="82" height="40" as="geometry">
            <mxRectangle width="82" height="40" as="alternateBounds" />
          </mxGeometry>
        </mxCell>
        <mxCell id="wXo4H-SSi3zwfZi33Xhp-68" value="Day" style="shape=partialRectangle;html=1;whiteSpace=wrap;connectable=0;overflow=hidden;fillColor=none;top=0;left=0;bottom=0;right=0;pointerEvents=1;fontSize=17;" vertex="1" parent="wXo4H-SSi3zwfZi33Xhp-66">
          <mxGeometry x="82" width="82" height="40" as="geometry">
            <mxRectangle width="82" height="40" as="alternateBounds" />
          </mxGeometry>
        </mxCell>
        <mxCell id="wXo4H-SSi3zwfZi33Xhp-69" value="Start_time" style="shape=partialRectangle;html=1;whiteSpace=wrap;connectable=0;overflow=hidden;fillColor=none;top=0;left=0;bottom=0;right=0;pointerEvents=1;fontSize=17;" vertex="1" parent="wXo4H-SSi3zwfZi33Xhp-66">
          <mxGeometry x="164" width="82" height="40" as="geometry">
            <mxRectangle width="82" height="40" as="alternateBounds" />
          </mxGeometry>
        </mxCell>
        <mxCell id="wXo4H-SSi3zwfZi33Xhp-70" value="End_time" style="shape=partialRectangle;html=1;whiteSpace=wrap;connectable=0;overflow=hidden;fillColor=none;top=0;left=0;bottom=0;right=0;pointerEvents=1;fontSize=17;" vertex="1" parent="wXo4H-SSi3zwfZi33Xhp-66">
          <mxGeometry x="246" width="82" height="40" as="geometry">
            <mxRectangle width="82" height="40" as="alternateBounds" />
          </mxGeometry>
        </mxCell>
        <mxCell id="wXo4H-SSi3zwfZi33Xhp-71" value="Bnum" style="shape=partialRectangle;html=1;whiteSpace=wrap;connectable=0;overflow=hidden;fillColor=none;top=0;left=0;bottom=0;right=0;pointerEvents=1;fontSize=17;" vertex="1" parent="wXo4H-SSi3zwfZi33Xhp-66">
          <mxGeometry x="328" width="82" height="40" as="geometry">
            <mxRectangle width="82" height="40" as="alternateBounds" />
          </mxGeometry>
        </mxCell>
        <mxCell id="wXo4H-SSi3zwfZi33Xhp-72" value="Guest" style="shape=table;startSize=30;container=1;collapsible=0;childLayout=tableLayout;fontSize=17;fontStyle=1" vertex="1" parent="1">
          <mxGeometry x="40" y="750" width="730" height="70" as="geometry" />
        </mxCell>
        <mxCell id="wXo4H-SSi3zwfZi33Xhp-73" value="" style="shape=partialRectangle;collapsible=0;dropTarget=0;pointerEvents=0;fillColor=none;top=0;left=0;bottom=0;right=0;points=[[0,0.5],[1,0.5]];portConstraint=eastwest;fontSize=17;" vertex="1" parent="wXo4H-SSi3zwfZi33Xhp-72">
          <mxGeometry y="30" width="730" height="40" as="geometry" />
        </mxCell>
        <mxCell id="wXo4H-SSi3zwfZi33Xhp-74" value="Passenger_id" style="shape=partialRectangle;html=1;whiteSpace=wrap;connectable=0;overflow=hidden;fillColor=none;top=0;left=0;bottom=0;right=0;pointerEvents=1;fontSize=17;" vertex="1" parent="wXo4H-SSi3zwfZi33Xhp-73">
          <mxGeometry width="121" height="40" as="geometry">
            <mxRectangle width="121" height="40" as="alternateBounds" />
          </mxGeometry>
        </mxCell>
        <mxCell id="wXo4H-SSi3zwfZi33Xhp-75" value="G_id" style="shape=partialRectangle;html=1;whiteSpace=wrap;connectable=0;overflow=hidden;fillColor=none;top=0;left=0;bottom=0;right=0;pointerEvents=1;fontSize=17;" vertex="1" parent="wXo4H-SSi3zwfZi33Xhp-73">
          <mxGeometry x="121" width="123" height="40" as="geometry">
            <mxRectangle width="123" height="40" as="alternateBounds" />
          </mxGeometry>
        </mxCell>
        <mxCell id="wXo4H-SSi3zwfZi33Xhp-76" value="G_name" style="shape=partialRectangle;html=1;whiteSpace=wrap;connectable=0;overflow=hidden;fillColor=none;top=0;left=0;bottom=0;right=0;pointerEvents=1;fontSize=17;" vertex="1" parent="wXo4H-SSi3zwfZi33Xhp-73">
          <mxGeometry x="244" width="121" height="40" as="geometry">
            <mxRectangle width="121" height="40" as="alternateBounds" />
          </mxGeometry>
        </mxCell>
        <mxCell id="wXo4H-SSi3zwfZi33Xhp-77" value="G_addr" style="shape=partialRectangle;html=1;whiteSpace=wrap;connectable=0;overflow=hidden;fillColor=none;top=0;left=0;bottom=0;right=0;pointerEvents=1;fontSize=17;" vertex="1" parent="wXo4H-SSi3zwfZi33Xhp-73">
          <mxGeometry x="365" width="121" height="40" as="geometry">
            <mxRectangle width="121" height="40" as="alternateBounds" />
          </mxGeometry>
        </mxCell>
        <mxCell id="wXo4H-SSi3zwfZi33Xhp-78" value="&lt;u&gt;P_id&lt;/u&gt;" style="shape=partialRectangle;html=1;whiteSpace=wrap;connectable=0;overflow=hidden;fillColor=none;top=0;left=0;bottom=0;right=0;pointerEvents=1;fontSize=17;" vertex="1" parent="wXo4H-SSi3zwfZi33Xhp-73">
          <mxGeometry x="486" width="123" height="40" as="geometry">
            <mxRectangle width="123" height="40" as="alternateBounds" />
          </mxGeometry>
        </mxCell>
        <mxCell id="wXo4H-SSi3zwfZi33Xhp-79" value="G_contact_info" style="shape=partialRectangle;html=1;whiteSpace=wrap;connectable=0;overflow=hidden;fillColor=none;top=0;left=0;bottom=0;right=0;pointerEvents=1;fontSize=17;" vertex="1" parent="wXo4H-SSi3zwfZi33Xhp-73">
          <mxGeometry x="609" width="121" height="40" as="geometry">
            <mxRectangle width="121" height="40" as="alternateBounds" />
          </mxGeometry>
        </mxCell>
        <mxCell id="wXo4H-SSi3zwfZi33Xhp-80" value="Travel Card" style="shape=table;startSize=30;container=1;collapsible=0;childLayout=tableLayout;fontSize=17;fontStyle=1" vertex="1" parent="1">
          <mxGeometry x="40" y="850" width="400" height="70" as="geometry" />
        </mxCell>
        <mxCell id="wXo4H-SSi3zwfZi33Xhp-81" value="" style="shape=partialRectangle;collapsible=0;dropTarget=0;pointerEvents=0;fillColor=none;top=0;left=0;bottom=0;right=0;points=[[0,0.5],[1,0.5]];portConstraint=eastwest;fontSize=17;" vertex="1" parent="wXo4H-SSi3zwfZi33Xhp-80">
          <mxGeometry y="30" width="400" height="40" as="geometry" />
        </mxCell>
        <mxCell id="wXo4H-SSi3zwfZi33Xhp-82" value="&lt;u&gt;P_id&lt;/u&gt;" style="shape=partialRectangle;html=1;whiteSpace=wrap;connectable=0;overflow=hidden;fillColor=none;top=0;left=0;bottom=0;right=0;pointerEvents=1;fontSize=17;" vertex="1" parent="wXo4H-SSi3zwfZi33Xhp-81">
          <mxGeometry width="100" height="40" as="geometry">
            <mxRectangle width="100" height="40" as="alternateBounds" />
          </mxGeometry>
        </mxCell>
        <mxCell id="wXo4H-SSi3zwfZi33Xhp-83" value="C_id" style="shape=partialRectangle;html=1;whiteSpace=wrap;connectable=0;overflow=hidden;fillColor=none;top=0;left=0;bottom=0;right=0;pointerEvents=1;fontSize=17;" vertex="1" parent="wXo4H-SSi3zwfZi33Xhp-81">
          <mxGeometry x="100" width="100" height="40" as="geometry">
            <mxRectangle width="100" height="40" as="alternateBounds" />
          </mxGeometry>
        </mxCell>
        <mxCell id="wXo4H-SSi3zwfZi33Xhp-84" value="Issued_date" style="shape=partialRectangle;html=1;whiteSpace=wrap;connectable=0;overflow=hidden;fillColor=none;top=0;left=0;bottom=0;right=0;pointerEvents=1;fontSize=17;" vertex="1" parent="wXo4H-SSi3zwfZi33Xhp-81">
          <mxGeometry x="200" width="100" height="40" as="geometry">
            <mxRectangle width="100" height="40" as="alternateBounds" />
          </mxGeometry>
        </mxCell>
        <mxCell id="wXo4H-SSi3zwfZi33Xhp-85" value="Other_info" style="shape=partialRectangle;html=1;whiteSpace=wrap;connectable=0;overflow=hidden;fillColor=none;top=0;left=0;bottom=0;right=0;pointerEvents=1;fontSize=17;" vertex="1" parent="wXo4H-SSi3zwfZi33Xhp-81">
          <mxGeometry x="300" width="100" height="40" as="geometry">
            <mxRectangle width="100" height="40" as="alternateBounds" />
          </mxGeometry>
        </mxCell>
        <mxCell id="wXo4H-SSi3zwfZi33Xhp-86" value="Promotion" style="shape=table;startSize=30;container=1;collapsible=0;childLayout=tableLayout;fontSize=17;fontStyle=1" vertex="1" parent="1">
          <mxGeometry x="540" y="850" width="290" height="70" as="geometry" />
        </mxCell>
        <mxCell id="wXo4H-SSi3zwfZi33Xhp-87" value="" style="shape=partialRectangle;collapsible=0;dropTarget=0;pointerEvents=0;fillColor=none;top=0;left=0;bottom=0;right=0;points=[[0,0.5],[1,0.5]];portConstraint=eastwest;fontSize=17;" vertex="1" parent="wXo4H-SSi3zwfZi33Xhp-86">
          <mxGeometry y="30" width="290" height="40" as="geometry" />
        </mxCell>
        <mxCell id="wXo4H-SSi3zwfZi33Xhp-88" value="Promo_id" style="shape=partialRectangle;html=1;whiteSpace=wrap;connectable=0;overflow=hidden;fillColor=none;top=0;left=0;bottom=0;right=0;pointerEvents=1;fontSize=17;" vertex="1" parent="wXo4H-SSi3zwfZi33Xhp-87">
          <mxGeometry width="97" height="40" as="geometry">
            <mxRectangle width="97" height="40" as="alternateBounds" />
          </mxGeometry>
        </mxCell>
        <mxCell id="wXo4H-SSi3zwfZi33Xhp-89" value="Promo_desc" style="shape=partialRectangle;html=1;whiteSpace=wrap;connectable=0;overflow=hidden;fillColor=none;top=0;left=0;bottom=0;right=0;pointerEvents=1;fontSize=17;" vertex="1" parent="wXo4H-SSi3zwfZi33Xhp-87">
          <mxGeometry x="97" width="96" height="40" as="geometry">
            <mxRectangle width="96" height="40" as="alternateBounds" />
          </mxGeometry>
        </mxCell>
        <mxCell id="wXo4H-SSi3zwfZi33Xhp-90" value="&lt;u&gt;P_id&lt;/u&gt;" style="shape=partialRectangle;html=1;whiteSpace=wrap;connectable=0;overflow=hidden;fillColor=none;top=0;left=0;bottom=0;right=0;pointerEvents=1;fontSize=17;" vertex="1" parent="wXo4H-SSi3zwfZi33Xhp-87">
          <mxGeometry x="193" width="97" height="40" as="geometry">
            <mxRectangle width="97" height="40" as="alternateBounds" />
          </mxGeometry>
        </mxCell>
        <mxCell id="wXo4H-SSi3zwfZi33Xhp-91" value="Pay" style="shape=table;startSize=30;container=1;collapsible=0;childLayout=tableLayout;fontSize=17;fontStyle=1" vertex="1" parent="1">
          <mxGeometry x="540" y="330" width="120" height="70" as="geometry" />
        </mxCell>
        <mxCell id="wXo4H-SSi3zwfZi33Xhp-92" value="" style="shape=partialRectangle;collapsible=0;dropTarget=0;pointerEvents=0;fillColor=none;top=0;left=0;bottom=0;right=0;points=[[0,0.5],[1,0.5]];portConstraint=eastwest;fontSize=17;" vertex="1" parent="wXo4H-SSi3zwfZi33Xhp-91">
          <mxGeometry y="30" width="120" height="40" as="geometry" />
        </mxCell>
        <mxCell id="wXo4H-SSi3zwfZi33Xhp-93" value="&lt;u&gt;Pay_id&lt;/u&gt;" style="shape=partialRectangle;html=1;whiteSpace=wrap;connectable=0;overflow=hidden;fillColor=none;top=0;left=0;bottom=0;right=0;pointerEvents=1;fontSize=17;" vertex="1" parent="wXo4H-SSi3zwfZi33Xhp-92">
          <mxGeometry width="60" height="40" as="geometry">
            <mxRectangle width="60" height="40" as="alternateBounds" />
          </mxGeometry>
        </mxCell>
        <mxCell id="wXo4H-SSi3zwfZi33Xhp-94" value="&lt;u&gt;P_id&lt;/u&gt;" style="shape=partialRectangle;html=1;whiteSpace=wrap;connectable=0;overflow=hidden;fillColor=none;top=0;left=0;bottom=0;right=0;pointerEvents=1;fontSize=17;" vertex="1" parent="wXo4H-SSi3zwfZi33Xhp-92">
          <mxGeometry x="60" width="60" height="40" as="geometry">
            <mxRectangle width="60" height="40" as="alternateBounds" />
          </mxGeometry>
        </mxCell>
        <mxCell id="wXo4H-SSi3zwfZi33Xhp-95" value="Intervals" style="shape=table;startSize=30;container=1;collapsible=0;childLayout=tableLayout;fontSize=17;fontStyle=1" vertex="1" parent="1">
          <mxGeometry x="40" y="950" width="270" height="70" as="geometry" />
        </mxCell>
        <mxCell id="wXo4H-SSi3zwfZi33Xhp-96" value="" style="shape=partialRectangle;collapsible=0;dropTarget=0;pointerEvents=0;fillColor=none;top=0;left=0;bottom=0;right=0;points=[[0,0.5],[1,0.5]];portConstraint=eastwest;fontSize=17;" vertex="1" parent="wXo4H-SSi3zwfZi33Xhp-95">
          <mxGeometry y="30" width="270" height="40" as="geometry" />
        </mxCell>
        <mxCell id="wXo4H-SSi3zwfZi33Xhp-97" value="15min" style="shape=partialRectangle;html=1;whiteSpace=wrap;connectable=0;overflow=hidden;fillColor=none;top=0;left=0;bottom=0;right=0;pointerEvents=1;fontSize=17;" vertex="1" parent="wXo4H-SSi3zwfZi33Xhp-96">
          <mxGeometry width="68" height="40" as="geometry">
            <mxRectangle width="68" height="40" as="alternateBounds" />
          </mxGeometry>
        </mxCell>
        <mxCell id="wXo4H-SSi3zwfZi33Xhp-98" value="&lt;span&gt;20min&lt;/span&gt;" style="shape=partialRectangle;html=1;whiteSpace=wrap;connectable=0;overflow=hidden;fillColor=none;top=0;left=0;bottom=0;right=0;pointerEvents=1;fontSize=17;" vertex="1" parent="wXo4H-SSi3zwfZi33Xhp-96">
          <mxGeometry x="68" width="67" height="40" as="geometry">
            <mxRectangle width="67" height="40" as="alternateBounds" />
          </mxGeometry>
        </mxCell>
        <mxCell id="wXo4H-SSi3zwfZi33Xhp-99" value="&lt;span&gt;30min&lt;/span&gt;" style="shape=partialRectangle;html=1;whiteSpace=wrap;connectable=0;overflow=hidden;fillColor=none;top=0;left=0;bottom=0;right=0;pointerEvents=1;fontSize=17;" vertex="1" parent="wXo4H-SSi3zwfZi33Xhp-96">
          <mxGeometry x="135" width="68" height="40" as="geometry">
            <mxRectangle width="68" height="40" as="alternateBounds" />
          </mxGeometry>
        </mxCell>
        <mxCell id="wXo4H-SSi3zwfZi33Xhp-100" value="&lt;u&gt;Time_id&lt;/u&gt;" style="shape=partialRectangle;html=1;whiteSpace=wrap;connectable=0;overflow=hidden;fillColor=none;top=0;left=0;bottom=0;right=0;pointerEvents=1;fontSize=17;" vertex="1" parent="wXo4H-SSi3zwfZi33Xhp-96">
          <mxGeometry x="203" width="67" height="40" as="geometry">
            <mxRectangle width="67" height="40" as="alternateBounds" />
          </mxGeometry>
        </mxCell>
        <mxCell id="wXo4H-SSi3zwfZi33Xhp-101" value="Drive" style="shape=table;startSize=30;container=1;collapsible=0;childLayout=tableLayout;fontSize=17;fontStyle=1" vertex="1" parent="1">
          <mxGeometry x="540" y="540" width="120" height="70" as="geometry" />
        </mxCell>
        <mxCell id="wXo4H-SSi3zwfZi33Xhp-102" value="" style="shape=partialRectangle;collapsible=0;dropTarget=0;pointerEvents=0;fillColor=none;top=0;left=0;bottom=0;right=0;points=[[0,0.5],[1,0.5]];portConstraint=eastwest;fontSize=17;" vertex="1" parent="wXo4H-SSi3zwfZi33Xhp-101">
          <mxGeometry y="30" width="120" height="40" as="geometry" />
        </mxCell>
        <mxCell id="wXo4H-SSi3zwfZi33Xhp-103" value="&lt;u&gt;P_id&lt;/u&gt;" style="shape=partialRectangle;html=1;whiteSpace=wrap;connectable=0;overflow=hidden;fillColor=none;top=0;left=0;bottom=0;right=0;pointerEvents=1;fontSize=17;" vertex="1" parent="wXo4H-SSi3zwfZi33Xhp-102">
          <mxGeometry width="60" height="40" as="geometry">
            <mxRectangle width="60" height="40" as="alternateBounds" />
          </mxGeometry>
        </mxCell>
        <mxCell id="wXo4H-SSi3zwfZi33Xhp-104" value="&lt;u&gt;B_num&lt;/u&gt;" style="shape=partialRectangle;html=1;whiteSpace=wrap;connectable=0;overflow=hidden;fillColor=none;top=0;left=0;bottom=0;right=0;pointerEvents=1;fontSize=17;" vertex="1" parent="wXo4H-SSi3zwfZi33Xhp-102">
          <mxGeometry x="60" width="60" height="40" as="geometry">
            <mxRectangle width="60" height="40" as="alternateBounds" />
          </mxGeometry>
        </mxCell>
        <mxCell id="wXo4H-SSi3zwfZi33Xhp-105" value="Person_mobile" style="shape=table;startSize=30;container=1;collapsible=0;childLayout=tableLayout;fontSize=17;fontStyle=1" vertex="1" parent="1">
          <mxGeometry x="540" y="650" width="250" height="70" as="geometry" />
        </mxCell>
        <mxCell id="wXo4H-SSi3zwfZi33Xhp-106" value="" style="shape=partialRectangle;collapsible=0;dropTarget=0;pointerEvents=0;fillColor=none;top=0;left=0;bottom=0;right=0;points=[[0,0.5],[1,0.5]];portConstraint=eastwest;fontSize=17;" vertex="1" parent="wXo4H-SSi3zwfZi33Xhp-105">
          <mxGeometry y="30" width="250" height="40" as="geometry" />
        </mxCell>
        <mxCell id="wXo4H-SSi3zwfZi33Xhp-107" value="&lt;u&gt;P_id&lt;/u&gt;" style="shape=partialRectangle;html=1;whiteSpace=wrap;connectable=0;overflow=hidden;fillColor=none;top=0;left=0;bottom=0;right=0;pointerEvents=1;fontSize=17;" vertex="1" parent="wXo4H-SSi3zwfZi33Xhp-106">
          <mxGeometry width="125" height="40" as="geometry">
            <mxRectangle width="125" height="40" as="alternateBounds" />
          </mxGeometry>
        </mxCell>
        <mxCell id="wXo4H-SSi3zwfZi33Xhp-108" value="&lt;u&gt;P_mobile_num&lt;/u&gt;" style="shape=partialRectangle;html=1;whiteSpace=wrap;connectable=0;overflow=hidden;fillColor=none;top=0;left=0;bottom=0;right=0;pointerEvents=1;fontSize=17;" vertex="1" parent="wXo4H-SSi3zwfZi33Xhp-106">
          <mxGeometry x="125" width="125" height="40" as="geometry">
            <mxRectangle width="125" height="40" as="alternateBounds" />
          </mxGeometry>
        </mxCell>
        <mxCell id="wXo4H-SSi3zwfZi33Xhp-109" value="Sell" style="shape=table;startSize=30;container=1;collapsible=0;childLayout=tableLayout;fontSize=17;fontStyle=1" vertex="1" parent="1">
          <mxGeometry x="540" y="440" width="180" height="70" as="geometry" />
        </mxCell>
        <mxCell id="wXo4H-SSi3zwfZi33Xhp-110" value="" style="shape=partialRectangle;collapsible=0;dropTarget=0;pointerEvents=0;fillColor=none;top=0;left=0;bottom=0;right=0;points=[[0,0.5],[1,0.5]];portConstraint=eastwest;fontSize=17;" vertex="1" parent="wXo4H-SSi3zwfZi33Xhp-109">
          <mxGeometry y="30" width="180" height="40" as="geometry" />
        </mxCell>
        <mxCell id="wXo4H-SSi3zwfZi33Xhp-111" value="&lt;u&gt;P_id&lt;/u&gt;" style="shape=partialRectangle;html=1;whiteSpace=wrap;connectable=0;overflow=hidden;fillColor=none;top=0;left=0;bottom=0;right=0;pointerEvents=1;fontSize=17;" vertex="1" parent="wXo4H-SSi3zwfZi33Xhp-110">
          <mxGeometry width="60" height="40" as="geometry">
            <mxRectangle width="60" height="40" as="alternateBounds" />
          </mxGeometry>
        </mxCell>
        <mxCell id="wXo4H-SSi3zwfZi33Xhp-112" value="&lt;u&gt;Pay_id&lt;/u&gt;" style="shape=partialRectangle;html=1;whiteSpace=wrap;connectable=0;overflow=hidden;fillColor=none;top=0;left=0;bottom=0;right=0;pointerEvents=1;fontSize=17;" vertex="1" parent="wXo4H-SSi3zwfZi33Xhp-110">
          <mxGeometry x="60" width="60" height="40" as="geometry">
            <mxRectangle width="60" height="40" as="alternateBounds" />
          </mxGeometry>
        </mxCell>
        <mxCell id="wXo4H-SSi3zwfZi33Xhp-113" value="&lt;u&gt;T_id&lt;/u&gt;" style="shape=partialRectangle;html=1;whiteSpace=wrap;connectable=0;overflow=hidden;fillColor=none;top=0;left=0;bottom=0;right=0;pointerEvents=1;fontSize=17;" vertex="1" parent="wXo4H-SSi3zwfZi33Xhp-110">
          <mxGeometry x="120" width="60" height="40" as="geometry">
            <mxRectangle width="60" height="40" as="alternateBounds" />
          </mxGeometry>
        </mxCell>
      </root>
    </mxGraphModel>
  </diagram>
</mxfile>
